<svg width="420" height="281" viewBox="0 0 420 281" fill="none" xmlns="http://www.w3.org/2000/svg">
<g filter="url(#filter0_bdddddd_54_11)">
<rect x="89" y="1.99976" width="252" height="80" rx="10" fill="white" fill-opacity="0.8"/>
</g>
<g filter="url(#filter1_d_54_11)">
<path d="M89 67.9998H102.081C104.941 67.9998 107.404 65.981 107.965 63.1765L108.413 60.9364C109.027 57.8669 111.897 55.7851 115.005 56.1552L126.044 57.4692C128.686 57.7838 131.22 56.3206 132.268 53.8748L134.773 48.03C136.371 44.301 141.132 43.2001 144.205 45.8491L149.522 50.4325C151.33 51.9916 153.891 52.3299 156.043 51.2941L163.567 47.6712C165.114 46.9262 166.907 46.8799 168.49 47.5441L177.785 51.442C180.032 52.3842 182.626 51.8742 184.348 50.1515L188.762 45.7376C190.163 44.3371 192.164 43.718 194.111 44.083L202.03 45.5679C204.902 46.1063 207.743 44.4984 208.761 41.7598L210.971 35.8092C212.283 32.2768 216.488 30.814 219.709 32.7696L226.065 36.6285C227.004 37.1984 228.081 37.4998 229.179 37.4998H235.91C238.121 37.4998 240.152 38.7151 241.197 40.6628L247.675 52.7347C249.237 55.646 252.859 56.7466 255.777 55.1965L263.234 51.2346C265.237 50.1709 267.667 50.3267 269.517 51.6371L272.587 53.8117C275.657 55.9863 279.948 54.8317 281.512 51.4101L284.898 44.0052C285.874 41.8696 288.006 40.4998 290.354 40.4998H298.417C299.766 40.4998 301.076 40.045 302.135 39.2091L308.365 34.2905C309.424 33.4545 310.734 32.9998 312.083 32.9998H318.109C319.644 32.9998 321.121 32.4113 322.236 31.3555L328.264 25.644C329.379 24.5882 330.856 23.9998 332.391 23.9998H337.5" stroke="#FE9376" stroke-width="2"/>
</g>
<path d="M108.634 27.2098C107.911 27.2098 107.257 27.0861 106.674 26.8388C106.095 26.5868 105.617 26.2298 105.239 25.7678C104.866 25.3011 104.623 24.7481 104.511 24.1088L106.037 23.8778C106.191 24.4938 106.513 24.9744 107.003 25.3198C107.493 25.6604 108.065 25.8308 108.718 25.8308C109.124 25.8308 109.497 25.7678 109.838 25.6418C110.179 25.5111 110.452 25.3268 110.657 25.0888C110.867 24.8461 110.972 24.5568 110.972 24.2208C110.972 24.0388 110.939 23.8778 110.874 23.7378C110.813 23.5978 110.727 23.4764 110.615 23.3738C110.508 23.2664 110.375 23.1754 110.216 23.1008C110.062 23.0214 109.892 22.9538 109.705 22.8978L107.122 22.1348C106.87 22.0601 106.613 21.9644 106.352 21.8478C106.091 21.7264 105.85 21.5701 105.631 21.3788C105.416 21.1828 105.241 20.9424 105.106 20.6578C104.971 20.3684 104.903 20.0184 104.903 19.6078C104.903 18.9871 105.062 18.4621 105.379 18.0328C105.701 17.5988 106.135 17.2721 106.681 17.0528C107.227 16.8288 107.838 16.7168 108.515 16.7168C109.196 16.7261 109.805 16.8474 110.342 17.0808C110.883 17.3141 111.331 17.6501 111.686 18.0888C112.045 18.5228 112.293 19.0501 112.428 19.6708L110.86 19.9368C110.79 19.5588 110.641 19.2344 110.412 18.9638C110.183 18.6884 109.903 18.4784 109.572 18.3338C109.241 18.1844 108.881 18.1074 108.494 18.1028C108.121 18.0934 107.778 18.1494 107.465 18.2708C107.157 18.3921 106.91 18.5624 106.723 18.7818C106.541 19.0011 106.45 19.2531 106.45 19.5378C106.45 19.8178 106.532 20.0441 106.695 20.2168C106.858 20.3894 107.059 20.5271 107.297 20.6298C107.54 20.7278 107.78 20.8094 108.018 20.8748L109.88 21.3998C110.113 21.4651 110.377 21.5538 110.671 21.6658C110.97 21.7731 111.257 21.9248 111.532 22.1208C111.812 22.3168 112.043 22.5781 112.225 22.9048C112.407 23.2268 112.498 23.6328 112.498 24.1228C112.498 24.6314 112.395 25.0794 112.19 25.4668C111.985 25.8494 111.702 26.1714 111.343 26.4328C110.988 26.6894 110.578 26.8831 110.111 27.0138C109.644 27.1444 109.152 27.2098 108.634 27.2098ZM118.036 26.9998C117.56 27.0931 117.093 27.1328 116.636 27.1188C116.178 27.1048 115.77 27.0161 115.411 26.8528C115.051 26.6894 114.781 26.4328 114.599 26.0828C114.435 25.7701 114.347 25.4528 114.333 25.1308C114.323 24.8041 114.319 24.4354 114.319 24.0248V17.3398H115.789V23.9548C115.789 24.2581 115.791 24.5218 115.796 24.7458C115.805 24.9698 115.854 25.1588 115.943 25.3128C116.111 25.6021 116.377 25.7678 116.741 25.8098C117.109 25.8471 117.541 25.8308 118.036 25.7608V26.9998ZM112.87 20.6158V19.4398H118.036V20.6158H112.87ZM121.485 27.2098C120.925 27.2098 120.456 27.1071 120.078 26.9018C119.7 26.6918 119.413 26.4164 119.217 26.0758C119.025 25.7304 118.93 25.3524 118.93 24.9418C118.93 24.5591 118.997 24.2231 119.133 23.9338C119.268 23.6444 119.469 23.3994 119.735 23.1988C120.001 22.9934 120.327 22.8278 120.715 22.7018C121.051 22.6038 121.431 22.5174 121.856 22.4428C122.28 22.3681 122.726 22.2981 123.193 22.2328C123.664 22.1674 124.131 22.1021 124.593 22.0368L124.061 22.3308C124.07 21.7381 123.944 21.2994 123.683 21.0148C123.426 20.7254 122.983 20.5808 122.353 20.5808C121.956 20.5808 121.592 20.6741 121.261 20.8608C120.929 21.0428 120.698 21.3461 120.568 21.7708L119.203 21.3508C119.389 20.7021 119.744 20.1864 120.267 19.8038C120.794 19.4211 121.494 19.2298 122.367 19.2298C123.043 19.2298 123.631 19.3464 124.131 19.5798C124.635 19.8084 125.003 20.1724 125.237 20.6718C125.358 20.9191 125.433 21.1804 125.461 21.4558C125.489 21.7311 125.503 22.0274 125.503 22.3448V26.9998H124.208V25.2708L124.46 25.4948C124.147 26.0734 123.748 26.5051 123.263 26.7898C122.782 27.0698 122.189 27.2098 121.485 27.2098ZM121.744 26.0128C122.159 26.0128 122.516 25.9404 122.815 25.7958C123.113 25.6464 123.354 25.4574 123.536 25.2288C123.718 25.0001 123.837 24.7621 123.893 24.5148C123.972 24.2908 124.016 24.0388 124.026 23.7588C124.04 23.4788 124.047 23.2548 124.047 23.0868L124.523 23.2618C124.061 23.3318 123.641 23.3948 123.263 23.4508C122.885 23.5068 122.542 23.5628 122.234 23.6188C121.93 23.6701 121.66 23.7331 121.422 23.8078C121.221 23.8778 121.041 23.9618 120.883 24.0598C120.729 24.1578 120.605 24.2768 120.512 24.4168C120.423 24.5568 120.379 24.7271 120.379 24.9278C120.379 25.1238 120.428 25.3058 120.526 25.4738C120.624 25.6371 120.773 25.7678 120.974 25.8658C121.174 25.9638 121.431 26.0128 121.744 26.0128ZM131.366 26.9998C130.89 27.0931 130.424 27.1328 129.966 27.1188C129.509 27.1048 129.101 27.0161 128.741 26.8528C128.382 26.6894 128.111 26.4328 127.929 26.0828C127.766 25.7701 127.677 25.4528 127.663 25.1308C127.654 24.8041 127.649 24.4354 127.649 24.0248V17.3398H129.119V23.9548C129.119 24.2581 129.122 24.5218 129.126 24.7458C129.136 24.9698 129.185 25.1588 129.273 25.3128C129.441 25.6021 129.707 25.7678 130.071 25.8098C130.44 25.8471 130.872 25.8308 131.366 25.7608V26.9998ZM126.2 20.6158V19.4398H131.366V20.6158H126.2ZM135.529 27.2028C135.007 27.2028 134.568 27.1188 134.213 26.9508C133.859 26.7828 133.569 26.5634 133.345 26.2928C133.126 26.0174 132.958 25.7188 132.841 25.3968C132.725 25.0748 132.645 24.7598 132.603 24.4518C132.561 24.1438 132.54 23.8731 132.54 23.6398V19.4398H134.024V23.1568C134.024 23.4508 134.048 23.7541 134.094 24.0668C134.146 24.3748 134.239 24.6618 134.374 24.9278C134.514 25.1938 134.708 25.4084 134.955 25.5718C135.207 25.7351 135.534 25.8168 135.935 25.8168C136.197 25.8168 136.444 25.7748 136.677 25.6908C136.911 25.6021 137.114 25.4621 137.286 25.2708C137.464 25.0794 137.601 24.8274 137.699 24.5148C137.802 24.2021 137.853 23.8218 137.853 23.3738L138.763 23.7168C138.763 24.4028 138.635 25.0094 138.378 25.5368C138.122 26.0594 137.753 26.4678 137.272 26.7618C136.792 27.0558 136.211 27.2028 135.529 27.2028ZM138.028 26.9998V24.8158H137.853V19.4398H139.33V26.9998H138.028ZM143.905 27.2028C142.985 27.2028 142.236 26.9998 141.658 26.5938C141.079 26.1878 140.724 25.6161 140.594 24.8788L142.092 24.6478C142.185 25.0398 142.4 25.3501 142.736 25.5788C143.076 25.8028 143.499 25.9148 144.003 25.9148C144.46 25.9148 144.817 25.8214 145.074 25.6348C145.335 25.4481 145.466 25.1914 145.466 24.8648C145.466 24.6734 145.419 24.5194 145.326 24.4028C145.237 24.2814 145.048 24.1671 144.759 24.0598C144.469 23.9524 144.028 23.8194 143.436 23.6608C142.787 23.4928 142.271 23.3131 141.889 23.1218C141.511 22.9258 141.24 22.6994 141.077 22.4428C140.918 22.1814 140.839 21.8664 140.839 21.4978C140.839 21.0404 140.96 20.6414 141.203 20.3008C141.445 19.9601 141.786 19.6964 142.225 19.5098C142.668 19.3231 143.186 19.2298 143.779 19.2298C144.357 19.2298 144.873 19.3208 145.326 19.5028C145.778 19.6848 146.145 19.9438 146.425 20.2798C146.705 20.6111 146.873 21.0008 146.929 21.4488L145.431 21.7218C145.379 21.3578 145.209 21.0708 144.92 20.8608C144.63 20.6508 144.255 20.5364 143.793 20.5178C143.349 20.4991 142.99 20.5738 142.715 20.7418C142.439 20.9051 142.302 21.1314 142.302 21.4208C142.302 21.5888 142.353 21.7311 142.456 21.8478C142.563 21.9644 142.768 22.0764 143.072 22.1838C143.375 22.2911 143.823 22.4194 144.416 22.5688C145.05 22.7321 145.554 22.9141 145.928 23.1148C146.301 23.3108 146.567 23.5464 146.726 23.8218C146.889 24.0924 146.971 24.4214 146.971 24.8088C146.971 25.5554 146.698 26.1411 146.152 26.5658C145.61 26.9904 144.861 27.2028 143.905 27.2028Z" fill="#3734A9"/>
<defs>
<filter id="filter0_bdddddd_54_11" x="0.90284" y="-62.0002" width="428.194" height="342.219" filterUnits="userSpaceOnUse" color-interpolation-filters="sRGB">
<feFlood flood-opacity="0" result="BackgroundImageFix"/>
<feGaussianBlur in="BackgroundImage" stdDeviation="32"/>
<feComposite in2="SourceAlpha" operator="in" result="effect1_backgroundBlur_54_11"/>
<feColorMatrix in="SourceAlpha" type="matrix" values="0 0 0 0 0 0 0 0 0 0 0 0 0 0 0 0 0 0 127 0" result="hardAlpha"/>
<feOffset dy="2.03929"/>
<feGaussianBlur stdDeviation="1.73339"/>
<feColorMatrix type="matrix" values="0 0 0 0 0 0 0 0 0 0 0 0 0 0 0 0 0 0 0.01 0"/>
<feBlend mode="normal" in2="effect1_backgroundBlur_54_11" result="effect2_dropShadow_54_11"/>
<feColorMatrix in="SourceAlpha" type="matrix" values="0 0 0 0 0 0 0 0 0 0 0 0 0 0 0 0 0 0 127 0" result="hardAlpha"/>
<feOffset dy="8.97286"/>
<feGaussianBlur stdDeviation="3.58914"/>
<feColorMatrix type="matrix" values="0 0 0 0 0 0 0 0 0 0 0 0 0 0 0 0 0 0 0.0117778 0"/>
<feBlend mode="normal" in2="effect2_dropShadow_54_11" result="effect3_dropShadow_54_11"/>
<feColorMatrix in="SourceAlpha" type="matrix" values="0 0 0 0 0 0 0 0 0 0 0 0 0 0 0 0 0 0 127 0" result="hardAlpha"/>
<feOffset dy="22.0243"/>
<feGaussianBlur stdDeviation="7.15789"/>
<feColorMatrix type="matrix" values="0 0 0 0 0 0 0 0 0 0 0 0 0 0 0 0 0 0 0.015 0"/>
<feBlend mode="normal" in2="effect3_dropShadow_54_11" result="effect4_dropShadow_54_11"/>
<feColorMatrix in="SourceAlpha" type="matrix" values="0 0 0 0 0 0 0 0 0 0 0 0 0 0 0 0 0 0 127 0" result="hardAlpha"/>
<feOffset dy="42.4172"/>
<feGaussianBlur stdDeviation="14.0303"/>
<feColorMatrix type="matrix" values="0 0 0 0 0 0 0 0 0 0 0 0 0 0 0 0 0 0 0.0182222 0"/>
<feBlend mode="normal" in2="effect4_dropShadow_54_11" result="effect5_dropShadow_54_11"/>
<feColorMatrix in="SourceAlpha" type="matrix" values="0 0 0 0 0 0 0 0 0 0 0 0 0 0 0 0 0 0 127 0" result="hardAlpha"/>
<feOffset dy="71.375"/>
<feGaussianBlur stdDeviation="25.797"/>
<feColorMatrix type="matrix" values="0 0 0 0 0 0 0 0 0 0 0 0 0 0 0 0 0 0 0.0227778 0"/>
<feBlend mode="normal" in2="effect5_dropShadow_54_11" result="effect6_dropShadow_54_11"/>
<feColorMatrix in="SourceAlpha" type="matrix" values="0 0 0 0 0 0 0 0 0 0 0 0 0 0 0 0 0 0 127 0" result="hardAlpha"/>
<feOffset dy="110.121"/>
<feGaussianBlur stdDeviation="44.0486"/>
<feColorMatrix type="matrix" values="0 0 0 0 0 0 0 0 0 0 0 0 0 0 0 0 0 0 0.03 0"/>
<feBlend mode="normal" in2="effect6_dropShadow_54_11" result="effect7_dropShadow_54_11"/>
<feBlend mode="normal" in="SourceGraphic" in2="effect7_dropShadow_54_11" result="shape"/>
</filter>
<filter id="filter1_d_54_11" x="85" y="22.9998" width="256.5" height="54" filterUnits="userSpaceOnUse" color-interpolation-filters="sRGB">
<feFlood flood-opacity="0" result="BackgroundImageFix"/>
<feColorMatrix in="SourceAlpha" type="matrix" values="0 0 0 0 0 0 0 0 0 0 0 0 0 0 0 0 0 0 127 0" result="hardAlpha"/>
<feOffset dy="4"/>
<feGaussianBlur stdDeviation="2"/>
<feComposite in2="hardAlpha" operator="out"/>
<feColorMatrix type="matrix" values="0 0 0 0 1 0 0 0 0 0.498039 0 0 0 0 0.360784 0 0 0 0.25 0"/>
<feBlend mode="normal" in2="BackgroundImageFix" result="effect1_dropShadow_54_11"/>
<feBlend mode="normal" in="SourceGraphic" in2="effect1_dropShadow_54_11" result="shape"/>
</filter>
</defs>
</svg>
