<svg width="421" height="317" viewBox="0 0 421 317" fill="none" xmlns="http://www.w3.org/2000/svg">
<g filter="url(#filter0_bdddddd_35_959)">
<rect x="89" y="2" width="243" height="116" rx="10" fill="white" fill-opacity="0.8"/>
</g>
<path d="M105.443 22.3998H106.243V27.9998H105.323V23.3838L104.195 23.7038L103.971 22.9198L105.443 22.3998ZM110.98 27.3118C110.596 27.8398 110.057 28.1038 109.364 28.1038C108.67 28.1038 108.129 27.8398 107.74 27.3118C107.356 26.7838 107.164 26.0798 107.164 25.1998C107.164 24.3198 107.356 23.6158 107.74 23.0878C108.129 22.5598 108.67 22.2958 109.364 22.2958C110.057 22.2958 110.596 22.5598 110.98 23.0878C111.369 23.6158 111.564 24.3198 111.564 25.1998C111.564 26.0798 111.369 26.7838 110.98 27.3118ZM109.364 27.2078C109.78 27.2078 110.097 27.0344 110.316 26.6878C110.534 26.3411 110.644 25.8451 110.644 25.1998C110.644 24.5544 110.534 24.0584 110.316 23.7118C110.097 23.3651 109.78 23.1918 109.364 23.1918C108.953 23.1918 108.636 23.3651 108.412 23.7118C108.193 24.0584 108.084 24.5544 108.084 25.1998C108.084 25.8451 108.193 26.3411 108.412 26.6878C108.636 27.0344 108.953 27.2078 109.364 27.2078ZM115.923 27.9998H114.891L113.251 26.1518V27.9998H112.387V22.3998H113.251V25.7678L114.803 23.9998H115.859L114.099 25.9598L115.923 27.9998Z" fill="#718EBF"/>
<path d="M111.746 45.1358V45.9918H111.106V46.9998H110.178V45.9918H107.426V45.1358L109.354 41.3998H110.354L108.426 45.1358H110.178V43.6798H111.106V45.1358H111.746ZM115.923 46.9998H114.891L113.251 45.1518V46.9998H112.387V41.3998H113.251V44.7678L114.803 42.9998H115.859L114.099 44.9598L115.923 46.9998Z" fill="#718EBF"/>
<path d="M107.896 65.9998V65.2798L109.848 63.2878C110.323 62.8131 110.56 62.4024 110.56 62.0558C110.56 61.7838 110.478 61.5731 110.312 61.4238C110.152 61.2691 109.947 61.1918 109.696 61.1918C109.227 61.1918 108.88 61.4238 108.656 61.8878L107.88 61.4318C108.056 61.0584 108.304 60.7758 108.624 60.5838C108.944 60.3918 109.299 60.2958 109.688 60.2958C110.179 60.2958 110.6 60.4504 110.952 60.7598C111.304 61.0691 111.48 61.4904 111.48 62.0238C111.48 62.5944 111.163 63.2024 110.528 63.8478L109.264 65.1118H111.584V65.9998H107.896ZM115.923 65.9998H114.891L113.251 64.1518V65.9998H112.387V60.3998H113.251V63.7678L114.803 61.9998H115.859L114.099 63.9598L115.923 65.9998Z" fill="#718EBF"/>
<path d="M115.097 85.3118C114.713 85.8398 114.174 86.1038 113.481 86.1038C112.788 86.1038 112.246 85.8398 111.857 85.3118C111.473 84.7838 111.281 84.0798 111.281 83.1998C111.281 82.3198 111.473 81.6158 111.857 81.0878C112.246 80.5598 112.788 80.2958 113.481 80.2958C114.174 80.2958 114.713 80.5598 115.097 81.0878C115.486 81.6158 115.681 82.3198 115.681 83.1998C115.681 84.0798 115.486 84.7838 115.097 85.3118ZM113.481 85.2078C113.897 85.2078 114.214 85.0344 114.433 84.6878C114.652 84.3411 114.761 83.8451 114.761 83.1998C114.761 82.5544 114.652 82.0584 114.433 81.7118C114.214 81.3651 113.897 81.1918 113.481 81.1918C113.07 81.1918 112.753 81.3651 112.529 81.7118C112.31 82.0584 112.201 82.5544 112.201 83.1998C112.201 83.8451 112.31 84.3411 112.529 84.6878C112.753 85.0344 113.07 85.2078 113.481 85.2078Z" fill="#718EBF"/>
<path d="M134.6 98.1038C134.061 98.1038 133.602 97.9811 133.224 97.7358C132.85 97.4904 132.589 97.1544 132.44 96.7278L133.232 96.2638C133.456 96.8931 133.92 97.2078 134.624 97.2078C134.97 97.2078 135.229 97.1411 135.4 97.0078C135.576 96.8691 135.664 96.6904 135.664 96.4718C135.664 96.2424 135.57 96.0691 135.384 95.9518C135.197 95.8291 134.866 95.6958 134.392 95.5518C134.125 95.4718 133.909 95.3971 133.744 95.3278C133.578 95.2584 133.402 95.1624 133.216 95.0398C133.034 94.9118 132.898 94.7544 132.808 94.5678C132.717 94.3811 132.672 94.1624 132.672 93.9118C132.672 93.4158 132.848 93.0238 133.2 92.7358C133.552 92.4424 133.976 92.2958 134.472 92.2958C134.92 92.2958 135.312 92.4051 135.648 92.6238C135.984 92.8424 136.242 93.1438 136.424 93.5278L135.648 93.9758C135.413 93.4531 135.021 93.1918 134.472 93.1918C134.205 93.1918 133.992 93.2558 133.832 93.3838C133.672 93.5064 133.592 93.6744 133.592 93.8878C133.592 94.0958 133.672 94.2611 133.832 94.3838C133.997 94.5011 134.293 94.6264 134.72 94.7598C134.933 94.8291 135.088 94.8824 135.184 94.9198C135.285 94.9518 135.424 95.0051 135.6 95.0798C135.781 95.1544 135.917 95.2291 136.008 95.3038C136.098 95.3784 136.194 95.4718 136.296 95.5838C136.402 95.6958 136.477 95.8238 136.52 95.9678C136.562 96.1118 136.584 96.2744 136.584 96.4558C136.584 96.9624 136.4 97.3651 136.032 97.6638C135.669 97.9571 135.192 98.1038 134.6 98.1038Z" fill="#718EBF"/>
<path d="M124 78.9998C124 77.3429 125.343 75.9998 127 75.9998H141C142.657 75.9998 144 77.3429 144 78.9998V87.9998H124V78.9998Z" fill="white"/>
<path d="M161.182 92.3998V97.9998H160.262V94.0078L158.558 96.8238H158.446L156.742 93.9998V97.9998H155.822V92.3998H156.814L158.502 95.1998L160.198 92.3998H161.182Z" fill="#718EBF"/>
<path d="M148 72.9998C148 71.3429 149.343 69.9998 151 69.9998H165C166.657 69.9998 168 71.3429 168 72.9998V87.9998H148V72.9998Z" fill="white"/>
<path d="M184.54 92.3998V93.2798H182.964V97.9998H182.044V93.2798H180.46V92.3998H184.54Z" fill="#718EBF"/>
<path d="M172 48.9998C172 47.3429 173.343 45.9998 175 45.9998H189C190.657 45.9998 192 47.3429 192 48.9998V87.9998H172V48.9998Z" fill="white"/>
<path d="M203.748 97.9998L202.164 92.3998H203.132L204.308 96.7758L205.58 92.3998H206.428L207.692 96.7758L208.868 92.3998H209.836L208.252 97.9998H207.188L206.004 93.9118L204.812 97.9998H203.748Z" fill="#718EBF"/>
<path d="M196 59.9998C196 58.3429 197.343 56.9998 199 56.9998H213C214.657 56.9998 216 58.3429 216 59.9998V87.9998H196V59.9998Z" fill="#007BE5"/>
<path d="M232.54 92.3998V93.2798H230.964V97.9998H230.044V93.2798H228.46V92.3998H232.54Z" fill="#718EBF"/>
<path d="M220 31.9998C220 30.3429 221.343 28.9998 223 28.9998H237C238.657 28.9998 240 30.3429 240 31.9998V87.9998H220V31.9998Z" fill="#007BE5"/>
<path d="M257.27 93.2798H254.91V94.8478H257.19V95.7278H254.91V97.9998H253.99V92.3998H257.27V93.2798Z" fill="#718EBF"/>
<path d="M244 78.9998C244 77.3429 245.343 75.9998 247 75.9998H261C262.657 75.9998 264 77.3429 264 78.9998V87.9998H244V78.9998Z" fill="white"/>
<path d="M278.6 98.1038C278.061 98.1038 277.602 97.9811 277.224 97.7358C276.85 97.4904 276.589 97.1544 276.44 96.7278L277.232 96.2638C277.456 96.8931 277.92 97.2078 278.624 97.2078C278.97 97.2078 279.229 97.1411 279.4 97.0078C279.576 96.8691 279.664 96.6904 279.664 96.4718C279.664 96.2424 279.57 96.0691 279.384 95.9518C279.197 95.8291 278.866 95.6958 278.392 95.5518C278.125 95.4718 277.909 95.3971 277.744 95.3278C277.578 95.2584 277.402 95.1624 277.216 95.0398C277.034 94.9118 276.898 94.7544 276.808 94.5678C276.717 94.3811 276.672 94.1624 276.672 93.9118C276.672 93.4158 276.848 93.0238 277.2 92.7358C277.552 92.4424 277.976 92.2958 278.472 92.2958C278.92 92.2958 279.312 92.4051 279.648 92.6238C279.984 92.8424 280.242 93.1438 280.424 93.5278L279.648 93.9758C279.413 93.4531 279.021 93.1918 278.472 93.1918C278.205 93.1918 277.992 93.2558 277.832 93.3838C277.672 93.5064 277.592 93.6744 277.592 93.8878C277.592 94.0958 277.672 94.2611 277.832 94.3838C277.997 94.5011 278.293 94.6264 278.72 94.7598C278.933 94.8291 279.088 94.8824 279.184 94.9198C279.285 94.9518 279.424 95.0051 279.6 95.0798C279.781 95.1544 279.917 95.2291 280.008 95.3038C280.098 95.3784 280.194 95.4718 280.296 95.5838C280.402 95.6958 280.477 95.8238 280.52 95.9678C280.562 96.1118 280.584 96.2744 280.584 96.4558C280.584 96.9624 280.4 97.3651 280.032 97.6638C279.669 97.9571 279.192 98.1038 278.6 98.1038Z" fill="#718EBF"/>
<path d="M268 59.9998C268 58.3429 269.343 56.9998 271 56.9998H285C286.657 56.9998 288 58.3429 288 59.9998V87.9998H268V59.9998Z" fill="#007BE5"/>
<path d="M303.6 98.1038C303.061 98.1038 302.602 97.9811 302.224 97.7358C301.85 97.4904 301.589 97.1544 301.44 96.7278L302.232 96.2638C302.456 96.8931 302.92 97.2078 303.624 97.2078C303.97 97.2078 304.229 97.1411 304.4 97.0078C304.576 96.8691 304.664 96.6904 304.664 96.4718C304.664 96.2424 304.57 96.0691 304.384 95.9518C304.197 95.8291 303.866 95.6958 303.392 95.5518C303.125 95.4718 302.909 95.3971 302.744 95.3278C302.578 95.2584 302.402 95.1624 302.216 95.0398C302.034 94.9118 301.898 94.7544 301.808 94.5678C301.717 94.3811 301.672 94.1624 301.672 93.9118C301.672 93.4158 301.848 93.0238 302.2 92.7358C302.552 92.4424 302.976 92.2958 303.472 92.2958C303.92 92.2958 304.312 92.4051 304.648 92.6238C304.984 92.8424 305.242 93.1438 305.424 93.5278L304.648 93.9758C304.413 93.4531 304.021 93.1918 303.472 93.1918C303.205 93.1918 302.992 93.2558 302.832 93.3838C302.672 93.5064 302.592 93.6744 302.592 93.8878C302.592 94.0958 302.672 94.2611 302.832 94.3838C302.997 94.5011 303.293 94.6264 303.72 94.7598C303.933 94.8291 304.088 94.8824 304.184 94.9198C304.285 94.9518 304.424 95.0051 304.6 95.0798C304.781 95.1544 304.917 95.2291 305.008 95.3038C305.098 95.3784 305.194 95.4718 305.296 95.5838C305.402 95.6958 305.477 95.8238 305.52 95.9678C305.562 96.1118 305.584 96.2744 305.584 96.4558C305.584 96.9624 305.4 97.3651 305.032 97.6638C304.669 97.9571 304.192 98.1038 303.6 98.1038Z" fill="#718EBF"/>
<path d="M292 44.9998C292 43.3429 293.343 41.9998 295 41.9998H309C310.657 41.9998 312 43.3429 312 44.9998V87.9998H292V44.9998Z" fill="#007BE5"/>
<defs>
<filter id="filter0_bdddddd_35_959" x="0.90284" y="-62" width="419.194" height="378.219" filterUnits="userSpaceOnUse" color-interpolation-filters="sRGB">
<feFlood flood-opacity="0" result="BackgroundImageFix"/>
<feGaussianBlur in="BackgroundImage" stdDeviation="32"/>
<feComposite in2="SourceAlpha" operator="in" result="effect1_backgroundBlur_35_959"/>
<feColorMatrix in="SourceAlpha" type="matrix" values="0 0 0 0 0 0 0 0 0 0 0 0 0 0 0 0 0 0 127 0" result="hardAlpha"/>
<feOffset dy="2.03929"/>
<feGaussianBlur stdDeviation="1.73339"/>
<feColorMatrix type="matrix" values="0 0 0 0 0 0 0 0 0 0 0 0 0 0 0 0 0 0 0.01 0"/>
<feBlend mode="normal" in2="effect1_backgroundBlur_35_959" result="effect2_dropShadow_35_959"/>
<feColorMatrix in="SourceAlpha" type="matrix" values="0 0 0 0 0 0 0 0 0 0 0 0 0 0 0 0 0 0 127 0" result="hardAlpha"/>
<feOffset dy="8.97286"/>
<feGaussianBlur stdDeviation="3.58914"/>
<feColorMatrix type="matrix" values="0 0 0 0 0 0 0 0 0 0 0 0 0 0 0 0 0 0 0.0117778 0"/>
<feBlend mode="normal" in2="effect2_dropShadow_35_959" result="effect3_dropShadow_35_959"/>
<feColorMatrix in="SourceAlpha" type="matrix" values="0 0 0 0 0 0 0 0 0 0 0 0 0 0 0 0 0 0 127 0" result="hardAlpha"/>
<feOffset dy="22.0243"/>
<feGaussianBlur stdDeviation="7.15789"/>
<feColorMatrix type="matrix" values="0 0 0 0 0 0 0 0 0 0 0 0 0 0 0 0 0 0 0.015 0"/>
<feBlend mode="normal" in2="effect3_dropShadow_35_959" result="effect4_dropShadow_35_959"/>
<feColorMatrix in="SourceAlpha" type="matrix" values="0 0 0 0 0 0 0 0 0 0 0 0 0 0 0 0 0 0 127 0" result="hardAlpha"/>
<feOffset dy="42.4172"/>
<feGaussianBlur stdDeviation="14.0303"/>
<feColorMatrix type="matrix" values="0 0 0 0 0 0 0 0 0 0 0 0 0 0 0 0 0 0 0.0182222 0"/>
<feBlend mode="normal" in2="effect4_dropShadow_35_959" result="effect5_dropShadow_35_959"/>
<feColorMatrix in="SourceAlpha" type="matrix" values="0 0 0 0 0 0 0 0 0 0 0 0 0 0 0 0 0 0 127 0" result="hardAlpha"/>
<feOffset dy="71.375"/>
<feGaussianBlur stdDeviation="25.797"/>
<feColorMatrix type="matrix" values="0 0 0 0 0 0 0 0 0 0 0 0 0 0 0 0 0 0 0.0227778 0"/>
<feBlend mode="normal" in2="effect5_dropShadow_35_959" result="effect6_dropShadow_35_959"/>
<feColorMatrix in="SourceAlpha" type="matrix" values="0 0 0 0 0 0 0 0 0 0 0 0 0 0 0 0 0 0 127 0" result="hardAlpha"/>
<feOffset dy="110.121"/>
<feGaussianBlur stdDeviation="44.0486"/>
<feColorMatrix type="matrix" values="0 0 0 0 0 0 0 0 0 0 0 0 0 0 0 0 0 0 0.03 0"/>
<feBlend mode="normal" in2="effect6_dropShadow_35_959" result="effect7_dropShadow_35_959"/>
<feBlend mode="normal" in="SourceGraphic" in2="effect7_dropShadow_35_959" result="shape"/>
</filter>
</defs>
</svg>
